<svg width="100" height="100" viewBox="0 0 100 100" fill="none" xmlns="http://www.w3.org/2000/svg">
<circle cx="50" cy="50" r="50" fill="white"/>
<path d="M74 48.8972V51.0132C73.9972 55.9729 72.3911 60.7989 69.4215 64.7714C66.4518 68.7438 62.2775 71.6499 57.5213 73.0561C52.7651 74.4624 47.6817 74.2935 43.0293 72.5747C38.3769 70.8559 34.4047 67.6792 31.7052 63.5184C29.0057 59.3576 27.7235 54.4357 28.0499 49.4867C28.3762 44.5377 30.2936 39.8267 33.516 36.0564C36.7385 32.2861 41.0934 29.6585 45.9312 28.5655C50.7691 27.4725 55.8306 27.9725 60.361 29.9912" stroke="#FF3333" stroke-width="5" stroke-linecap="round" stroke-linejoin="round"/>
<path d="M74.0001 32.6132L51.0001 55.6361L44.1001 48.7362" stroke="#FF3333" stroke-width="5" stroke-linecap="round" stroke-linejoin="round"/>
</svg>